<?xml version="1.0" encoding="UTF-8" standalone="no"?>
<svg
   xmlns:dc="http://purl.org/dc/elements/1.1/"
   xmlns:cc="http://creativecommons.org/ns#"
   xmlns:rdf="http://www.w3.org/1999/02/22-rdf-syntax-ns#"
   xmlns:svg="http://www.w3.org/2000/svg"
   xmlns="http://www.w3.org/2000/svg"
   xmlns:sodipodi="http://sodipodi.sourceforge.net/DTD/sodipodi-0.dtd"
   xmlns:inkscape="http://www.inkscape.org/namespaces/inkscape"
   width="64"
   height="64"
   version="1.1"
   id="svg28"
   sodipodi:docname="user-trash-full.svg"
   inkscape:version="0.92.4 (unknown)">
  <metadata
     id="metadata34">
    <rdf:RDF>
      <cc:Work
         rdf:about="">
        <dc:format>image/svg+xml</dc:format>
        <dc:type
           rdf:resource="http://purl.org/dc/dcmitype/StillImage" />
      </cc:Work>
    </rdf:RDF>
  </metadata>
  <defs
     id="defs32" />
  <sodipodi:namedview
     pagecolor="#ffffff"
     bordercolor="#666666"
     borderopacity="1"
     objecttolerance="10"
     gridtolerance="10"
     guidetolerance="10"
     inkscape:pageopacity="0"
     inkscape:pageshadow="2"
     inkscape:window-width="1366"
     inkscape:window-height="717"
     id="namedview30"
     showgrid="false"
     inkscape:zoom="7.375"
     inkscape:cx="2.9100834"
     inkscape:cy="43.353956"
     inkscape:window-x="0"
     inkscape:window-y="23"
     inkscape:window-maximized="1"
     inkscape:current-layer="svg28" />
  <path
     fill="none"
     d="M0 0h64v64H0z"
     id="path2" />
  <path
     style="fill:#e6e6e6;stroke:#808080;stroke-width:0.99968034;stroke-linejoin:round;stroke-opacity:1"
     d="M 31.804688 3.7265625 L 30.992188 5.7304688 L 30.859375 5.7167969 L 30.837891 5.9355469 L 10.126953 7.8066406 L 10.644531 13.501953 L 8.2011719 13.501953 L 12.5 56.542969 C 12.608 57.621969 13.392 58.5 14.5 58.5 L 49.5 58.5 C 50.608 58.5 51.392 57.622969 51.5 56.542969 L 55.800781 13.501953 L 53.439453 13.501953 L 53.982422 7.9765625 L 40.158203 6.6269531 L 39.232422 3.7265625 L 35.076172 5.046875 L 31.804688 3.7265625 z "
     id="path10" />
  <path
     d="M55.8 13.501l-4.3 43.042c-.108 1.08-.892 1.957-2 1.957h-35c-1.108 0-1.892-.878-2-1.957L8.2 13.501z"
     fill="#636a78"
     stroke="#272a2f"
     stroke-opacity=".784"
     id="path24"
     style="fill:#b3b3b3;stroke:#808080;stroke-opacity:1;fill-opacity:1" />
  <path
     d="M23.812 41.641c-.256.46-.46 1.152-.46 1.587 0 .101 0 .23.025.409l-3.198-5.501A1.427 1.427 0 0 1 20 37.47c0-.231.076-.512.179-.69l1.535-2.688-1.714-.97 5.578-.103 2.712 4.886-1.74-.997zm2.456-16.104c.486-.845 1.28-1.306 2.251-1.306 1.05 0 1.87.487 2.457 1.484l.87 1.458-3.02 5.82-4.886-3.44zm.358 20.53a2.675 2.675 0 0 1-2.66-2.66c0-.41.179-1.101.435-1.536l.818-1.458h6.064v5.654h-4.657zm4.862-20.684c-.383-.665-.895-1.127-1.51-1.383h6.294c.563 0 .998.231 1.255.667l1.56 2.66 1.688-.998-2.712 4.862-5.551-.078 1.714-.972zm9.698 15.081c.767 0 1.407-.204 1.944-.613l-3.173 5.526a1.382 1.382 0 0 1-1.253.69h-2.995v1.97l-2.865-4.784 2.865-4.785v1.996h5.477zm2.455-4.605c.23.41.359.844.359 1.305 0 .92-.59 1.893-1.407 2.353a2.857 2.857 0 0 1-1.458.334h-1.69l-3.018-5.22 4.886-2.79z"
     fill="#fff"
     id="path26"
     style="fill:#808080;fill-opacity:1" />
</svg>
